<?xml version="1.0" encoding="utf-8"?>
<!-- Generator: Adobe Illustrator 16.0.0, SVG Export Plug-In . SVG Version: 6.00 Build 0)  -->
<!DOCTYPE svg PUBLIC "-//W3C//DTD SVG 1.1//EN" "http://www.w3.org/Graphics/SVG/1.1/DTD/svg11.dtd">
<svg version="1.1" xmlns="http://www.w3.org/2000/svg" xmlns:xlink="http://www.w3.org/1999/xlink" x="0px" y="0px"
	 width="323.149px" height="79.37px" viewBox="0 0 323.149 79.37" enable-background="new 0 0 323.149 79.37" xml:space="preserve">
<g id="Layer_3">
	<rect x="375.604" y="-11.308" fill="#1E1F1D" width="368.992" height="103.634"/>
	<rect x="375.935" y="-11.254" fill="#EDD800" width="367.948" height="102.667"/>
</g>
<g id="Layer_4">
	<g id="logo-white_2_">
		<g>
			<g>
				<circle fill="#72716F" cx="48.018" cy="291.532" r="24.206"/>
			</g>
			<path fill="#FFFFFF" d="M54.816,293.695c0.208-0.175,0.401-0.366,0.603-0.545C54.652,293.902,54.246,294.221,54.816,293.695z
				 M60.787,295.931c0.047,0.732-0.102,1.522-0.498,2.153c-0.406,0.66-1.028,1.112-1.697,1.393c-0.669,0.282-1.378,0.407-2.08,0.453
				c-1.163,0.076-2.311-0.065-3.434-0.295c-1.216,3.177-3.051,5.204-5.103,5.204c-1.996,0-3.784-1.928-4.998-4.959
				c-1.026,0.23-2.075,0.378-3.142,0.347c-0.7-0.023-1.417-0.125-2.094-0.382c-0.677-0.256-1.314-0.687-1.746-1.332
				c-0.419-0.615-0.593-1.401-0.571-2.134c0.017-0.742,0.194-1.456,0.443-2.132c0.483-1.289,1.212-2.453,2.04-3.521
				c-0.108-0.125-0.221-0.249-0.326-0.378c-0.204,0.114-0.438,0.185-0.688,0.185c-0.788,0-1.426-0.639-1.426-1.426
				c0-0.455,0.217-0.855,0.547-1.117c-0.047-0.095-0.104-0.183-0.148-0.28c-0.296-0.64-0.527-1.322-0.603-2.044
				c-0.077-0.716,0.026-1.49,0.401-2.151c0.369-0.665,0.986-1.165,1.654-1.478c0.669-0.318,1.389-0.48,2.103-0.562
				c1.141-0.125,2.28-0.056,3.396,0.119c1.213-3.268,3.073-5.368,5.157-5.368c2.04,0,3.865,2.006,5.08,5.152
				c1.051-0.191,2.127-0.28,3.21-0.202c0.719,0.058,1.441,0.193,2.124,0.488c0.679,0.292,1.307,0.761,1.708,1.425
				c0.39,0.635,0.525,1.415,0.472,2.131c-0.049,0.725-0.258,1.413-0.531,2.062c-0.481,1.134-1.174,2.144-1.934,3.087
				c0.865,1.041,1.632,2.176,2.162,3.448C60.538,294.482,60.744,295.191,60.787,295.931z M53.354,282.225
				c0.456,1.378,0.802,2.938,1.009,4.622c1.309,1.004,2.541,2.112,3.623,3.374c0.003,0.004,0.006,0.008,0.009,0.011
				c0.707-0.954,1.32-1.977,1.73-3.074c0.23-0.635,0.394-1.297,0.406-1.958c0.014-0.659-0.133-1.301-0.496-1.833
				c-0.346-0.511-0.89-0.891-1.487-1.112c-0.604-0.227-1.263-0.322-1.923-0.341C55.268,281.888,54.303,282.019,53.354,282.225z
				 M49.027,297.557c-0.279,0.147-0.558,0.294-0.842,0.432c1.363,0.576,2.769,1.043,4.214,1.347
				c0.077,0.015,0.155,0.025,0.231,0.041c0.741-1.995,1.235-4.47,1.379-7.188c-0.635-0.144-1.11-0.708-1.11-1.388
				c0-0.687,0.487-1.26,1.134-1.395c-0.019-0.538-0.048-1.069-0.095-1.587c-0.959-0.73-1.96-1.412-2.997-2.018
				c-0.985-0.584-2.004-1.107-3.043-1.58c-1.024,0.51-2.026,1.067-2.99,1.686c-1.008,0.64-1.979,1.352-2.905,2.11
				c-0.067,0.817-0.107,1.654-0.107,2.513c0,1.366,0.091,2.681,0.256,3.927c0.118,0.132,0.108,0.154,0.011,0.098
				c0.255,1.884,0.687,3.592,1.248,5.039c0.173-0.037,0.347-0.068,0.519-0.109c1.436-0.353,2.823-0.872,4.165-1.495
				c-1.15-0.51-2.271-1.084-3.351-1.725c1.093,0.638,2.23,1.208,3.396,1.703c0.293-0.136,0.582-0.286,0.87-0.434
				c-0.183-0.238-0.294-0.535-0.294-0.858c0-0.789,0.639-1.427,1.428-1.427c0.602,0,1.114,0.374,1.324,0.9
				c0.002,0,0.004-0.001,0.005-0.003c-0.002,0.001-0.004,0.002-0.005,0.003c0.065,0.164,0.103,0.34,0.103,0.527
				c0,0.788-0.639,1.427-1.427,1.427C49.688,298.104,49.288,297.887,49.027,297.557z M41.36,290.532c0-0.696,0.03-1.375,0.074-2.044
				c-0.963,0.825-1.883,1.707-2.701,2.671c-0.031,0.038-0.06,0.076-0.091,0.113c1.437,1.26,2.36,2.09,2.906,2.597
				C41.429,292.796,41.36,291.683,41.36,290.532z M44.334,285.003c0.746-0.473,1.52-0.905,2.306-1.314
				c-1.036-0.412-2.09-0.775-3.169-1.043c-0.146-0.035-0.294-0.062-0.44-0.093c-0.381,1.209-0.681,2.558-0.874,4.013
				C42.862,286.017,43.584,285.489,44.334,285.003z M53.78,286.41c-0.206-1.481-0.525-2.846-0.925-4.065
				c-0.197,0.049-0.396,0.094-0.592,0.148c-1.068,0.305-2.108,0.705-3.128,1.152c0.799,0.381,1.587,0.786,2.348,1.23
				C52.271,285.349,53.034,285.868,53.78,286.41z M43.324,281.683c0.116,0.022,0.234,0.038,0.348,0.062
				c1.445,0.303,2.847,0.763,4.202,1.328c1.336-0.613,2.719-1.122,4.154-1.476c0.173-0.042,0.349-0.074,0.522-0.112
				c-1.116-2.888-2.75-4.723-4.575-4.723C46.111,276.762,44.44,278.678,43.324,281.683z M38.013,290.586
				c0.003-0.004,0.006-0.009,0.009-0.012c1.048-1.314,2.256-2.475,3.545-3.535c0.194-1.667,0.519-3.219,0.957-4.596
				c-1.007-0.191-2.025-0.3-3.034-0.235c-0.66,0.044-1.316,0.162-1.909,0.41c-0.594,0.245-1.118,0.635-1.453,1.169
				c-0.337,0.532-0.464,1.188-0.427,1.844c0.036,0.658,0.221,1.316,0.477,1.941c0.034,0.083,0.079,0.161,0.115,0.243
				c0.183-0.086,0.385-0.137,0.601-0.137c0.787,0,1.426,0.639,1.426,1.426c0,0.469-0.229,0.881-0.579,1.14
				C37.83,290.362,37.924,290.472,38.013,290.586z M42.904,299.702c-0.619-1.595-1.072-3.489-1.323-5.561
				c-0.088-0.067-0.176-0.137-0.266-0.208c-0.986-0.772-1.918-1.615-2.78-2.528c-0.789,0.959-1.504,1.985-1.983,3.111
				c-0.513,1.197-0.77,2.607-0.095,3.721c0.313,0.528,0.849,0.946,1.448,1.203c0.606,0.265,1.276,0.396,1.951,0.45
				C40.868,299.964,41.892,299.883,42.904,299.702z M52.573,299.524c-0.069-0.015-0.139-0.027-0.206-0.042
				c-1.454-0.36-2.861-0.866-4.227-1.469c-1.344,0.651-2.733,1.206-4.174,1.617c-0.163,0.044-0.329,0.083-0.494,0.124
				c1.114,2.785,2.717,4.549,4.503,4.549C49.811,304.303,51.456,302.445,52.573,299.524z M59.597,294.109
				c-0.52-1.109-1.269-2.11-2.093-3.04c-0.649,0.739-1.351,1.426-2.085,2.08c0.556-0.546,1.301-1.322,2.003-2.175
				c-0.042-0.047-0.083-0.097-0.126-0.145c-0.851-0.937-1.802-1.785-2.793-2.577c0.028,0.379,0.052,0.76,0.066,1.148
				c0.671,0.115,1.184,0.697,1.184,1.401c0,0.713-0.525,1.297-1.206,1.404c-0.147,2.728-0.651,5.222-1.408,7.261
				c1.112,0.18,2.241,0.251,3.348,0.13c0.672-0.078,1.337-0.231,1.931-0.518c0.593-0.277,1.112-0.714,1.41-1.255
				C60.458,296.687,60.15,295.29,59.597,294.109z"/>
		</g>
		<g>
			<g>
				<circle fill="#5B5858" cx="19.872" cy="301.793" r="16.775"/>
			</g>
			<path fill="#FFFFFF" d="M25.319,297.46h-6.867l-2.696,9.489c-0.082,0.252-0.312,0.428-0.579,0.437c-0.007,0-0.015,0-0.022,0
				c-0.256,0-0.489-0.156-0.585-0.396l-1.103-2.755h-1.043c-0.348,0-0.63-0.282-0.63-0.63c0-0.348,0.283-0.63,0.63-0.63h1.471
				c0.257,0,0.49,0.157,0.585,0.396l0.61,1.527l2.301-8.261c0.083-0.261,0.326-0.438,0.6-0.438h7.327c0.348,0,0.63,0.282,0.63,0.63
				S25.667,297.46,25.319,297.46z M25.659,305.93l-2.484-2.791l2.367-2.628c0.042-0.046,0.052-0.112,0.027-0.169
				c-0.025-0.057-0.082-0.093-0.144-0.093h-1.498c-0.045,0-0.089,0.02-0.119,0.054l-1.589,1.843l-1.577-1.842
				c-0.029-0.035-0.074-0.055-0.119-0.055h-1.566c-0.062,0-0.119,0.036-0.144,0.092c-0.026,0.057-0.015,0.123,0.026,0.17
				l2.341,2.629l-2.465,2.791c-0.042,0.046-0.051,0.113-0.026,0.169c0.026,0.056,0.082,0.092,0.144,0.092h1.552
				c0.046,0,0.091-0.021,0.121-0.057l1.646-1.975l1.684,1.976c0.03,0.035,0.074,0.055,0.12,0.055h1.586
				c0.062,0,0.119-0.036,0.144-0.093C25.71,306.042,25.7,305.976,25.659,305.93z"/>
		</g>
		<g>
			<g>
				<g>
					<g>
						<g>
							<g>
								<g>
									<circle fill="#9A9A9A" cx="41.885" cy="321.051" r="19.66"/>
								</g>
							</g>
						</g>
					</g>
				</g>
			</g>
			<path fill="#FFFFFF" d="M49.38,323.57l-0.575-3.317l-7.034,4.194l-6.898-4.195l-0.573,3.582c0.002-0.005,0.008-0.009,0.014-0.016
				c-0.083,0.138-0.127,0.279-0.127,0.423c0,1.266,5.309,5.162,7.079,5.162c1.771,0,8.231-3.896,8.231-5.162
				C49.497,324.105,49.451,323.973,49.38,323.57z M41.827,323.707l-10.811-6.551l10.84-3.458l10.811,3.408L41.827,323.707z
				 M31.091,317.735l-0.649,7.177l0.649,2.153l0.6-2.153L31.091,317.735z"/>
		</g>
		<g>
			<path fill="#3D3D3B" d="M98.392,314.681l-1.68-4.848c-1.664,0-3.344-0.256-5.04-0.768c-0.353,2.048-0.528,3.521-0.528,4.416
				c0,3.104,0.48,5.424,1.44,6.96c-1.92,1.44-3.92,2.16-6,2.16c-2.081,0-3.568-0.6-4.464-1.8c-0.896-1.2-1.344-2.992-1.344-5.376
				c0-2.383,1.008-9.144,3.024-20.28l-2.544-5.136c3.583-2.304,6.88-3.456,9.888-3.456c2.304,0,4.08,0.48,5.328,1.44
				c2.4-0.96,4.56-1.44,6.479-1.44c2.945,0,5.281,0.992,7.01,2.976c1.727,1.985,2.592,4.368,2.592,7.152
				c0,2.081-0.529,4.088-1.584,6.024c-1.057,1.937-2.609,3.512-4.656,4.728c1.088,3.104,2.311,5.776,3.672,8.016
				c1.359,2.24,2.711,3.728,4.055,4.464c-0.672,0.704-1.703,1.32-3.096,1.848c-1.391,0.528-2.648,0.792-3.768,0.792
				c-2.176,0-3.92-0.552-5.232-1.656C100.631,319.792,99.448,317.721,98.392,314.681z M93.784,303.833
				c2.56,0,4.552-0.655,5.976-1.968c1.424-1.312,2.137-2.72,2.137-4.224c0-1.504-0.416-2.704-1.249-3.6
				c-0.833-0.896-2.016-1.344-3.552-1.344c-0.833,0-1.665,0.112-2.496,0.336c-1.024,6.112-1.665,9.696-1.92,10.752
				C92.903,303.817,93.272,303.833,93.784,303.833z"/>
			<path fill="#3D3D3B" d="M128.967,322.553c-4.384,0-7.769-1.136-10.151-3.408c-2.385-2.272-3.576-5.344-3.576-9.216
				c0-5.152,1.768-9.336,5.304-12.552c3.535-3.216,7.976-4.824,13.32-4.824c2.976,0,5.231,0.664,6.768,1.992
				c1.536,1.328,2.305,3.081,2.305,5.256c0,2.976-1.448,5.448-4.345,7.416c-2.896,1.968-7.368,2.969-13.416,3
				c0.097,2.048,0.56,3.656,1.393,4.824c0.831,1.168,1.872,1.752,3.12,1.752s2.327-0.416,3.239-1.248
				c0.912-0.832,1.368-2.191,1.368-4.08c4.672,0,7.008,1.104,7.008,3.312c0,1.889-1.151,3.656-3.456,5.304
				C135.543,321.729,132.583,322.553,128.967,322.553z M133.047,298.168c-1.632,0-3.128,0.816-4.487,2.448
				c-1.361,1.632-2.345,3.552-2.952,5.76c3.199-0.256,5.607-0.984,7.224-2.184c1.615-1.2,2.424-2.472,2.424-3.816
				c0-0.64-0.2-1.167-0.6-1.584C134.255,298.377,133.719,298.168,133.047,298.168z"/>
			<path fill="#3D3D3B" d="M184.503,322.601c-2.08,0-3.568-0.6-4.464-1.8c-0.896-1.2-1.344-2.968-1.344-5.304
				c0-2.335,0.751-7.711,2.256-16.128h-0.768c-1.952,2.561-3.569,5.616-4.849,9.168c-1.28,3.552-2.063,6.752-2.352,9.6
				c-1.568,1.472-3.377,2.208-5.424,2.208c-0.833,0-1.561-0.296-2.185-0.888c-0.624-0.592-1.24-1.624-1.848-3.096
				c-1.185-2.976-2.032-8.64-2.544-16.992h-0.769c-1.567,6.88-2.352,11.729-2.352,14.544c0,2.816,0.479,4.992,1.44,6.528
				c-1.921,1.44-3.921,2.16-6,2.16c-2.081,0-3.569-0.6-4.465-1.8c-0.896-1.2-1.344-2.992-1.344-5.376
				c0-2.383,1.008-9.144,3.024-20.28l-2.544-5.136c3.615-2.335,6.912-3.504,9.888-3.504c1.312,0,2.424,0.137,3.336,0.408
				c0.912,0.272,1.792,0.792,2.64,1.56s1.544,1.84,2.088,3.216c1.248,3.104,2.144,7.632,2.688,13.584h0.576
				c1.663-4.896,3.968-9.104,6.912-12.624c1.6-1.888,3.511-3.375,5.735-4.464c2.224-1.087,4.633-1.632,7.225-1.632
				c2.464,0,3.695,1.488,3.695,4.464c0,0.992-0.616,4.68-1.848,11.064c-1.232,6.384-1.848,10.184-1.848,11.4
				c0,3.104,0.479,5.424,1.439,6.96C188.583,321.88,186.583,322.601,184.503,322.601z"/>
			<path fill="#3D3D3B" d="M214.215,286.553c4.224,0,7.392,0.488,9.504,1.464c2.112,0.977,3.168,2.528,3.168,4.656
				c0,2.129-0.647,3.744-1.944,4.848c-1.296,1.104-2.776,1.656-4.439,1.656c-1.664,0-3.161-0.424-4.488-1.272
				c-1.328-0.847-2.248-1.975-2.76-3.384c-1.185,0-2.312,0.392-3.384,1.176c-1.073,0.784-1.752,1.8-2.04,3.048
				c6.336,1.536,10.879,3.329,13.632,5.376c2.752,2.048,4.128,4.672,4.128,7.872c0,3.2-1.448,5.76-4.344,7.68
				c-2.896,1.92-6.801,2.88-11.712,2.88c-4.913,0-8.393-0.672-10.44-2.016c-2.048-1.344-3.072-3.12-3.072-5.328
				s0.688-4.24,2.064-6.096c0.672,1.44,1.96,2.736,3.864,3.888c1.903,1.152,3.783,1.728,5.64,1.728c3.424,0,5.6-1.087,6.528-3.264
				c-5.312-0.703-9.36-2.184-12.145-4.44c-2.784-2.256-4.176-4.983-4.176-8.184c0-2.143,0.576-4.056,1.728-5.736
				c1.152-1.68,2.624-2.968,4.416-3.864C207.463,287.449,210.887,286.553,214.215,286.553z"/>
			<path fill="#3D3D3B" d="M227.99,294.856c0-2.592,0.672-4.543,2.016-5.856c1.345-1.312,2.952-1.968,4.824-1.968
				s4.424,0.32,7.656,0.96c3.231,0.64,5.664,0.977,7.296,1.008c2.72-0.511,5.312-1.135,7.776-1.872
				c0.255,0.833,0.384,1.872,0.384,3.12c0,2.592-0.744,4.544-2.232,5.856c-1.487,1.312-3.384,1.968-5.688,1.968
				c-0.576,0-1.345-0.032-2.305-0.096c-1.76,9.248-2.64,14.417-2.64,15.504c0,3.104,0.48,5.424,1.44,6.96
				c-1.92,1.44-3.921,2.16-6,2.16c-2.081,0-3.568-0.6-4.464-1.8c-0.896-1.2-1.345-2.992-1.345-5.376
				c0-2.383,0.928-8.743,2.784-19.08c-3.616,0.48-6.656,1.024-9.12,1.632C228.118,297.177,227.99,296.137,227.99,294.856z"/>
			<path fill="#3D3D3B" d="M264.326,322.601c-1.889,0-3.281-0.6-4.177-1.8c-0.896-1.2-1.344-2.992-1.344-5.376
				c0-2.383,1.008-9.144,3.024-20.28l-2.544-5.136c3.615-2.335,6.912-3.504,9.888-3.504c1.888,0,3.056,0.896,3.504,2.688
				c3.616-0.096,8.128-0.912,13.536-2.448c0.256,1.056,0.384,2.096,0.384,3.12c0,2.592-0.856,4.544-2.568,5.856
				c-1.712,1.312-3.911,1.968-6.6,1.968c-1.824,0-3.616-0.384-5.376-1.152c-0.257,1.44-0.704,3.792-1.344,7.056
				c1.184,0.224,2.191,0.336,3.023,0.336c1.312-0.256,2.752-0.624,4.32-1.104c0.16,0.544,0.24,1.432,0.24,2.664
				s-0.497,2.216-1.488,2.952c-0.992,0.737-2.104,1.104-3.336,1.104c-1.232,0-2.488-0.144-3.768-0.432
				c-0.353,2.016-0.528,3.92-0.528,5.712h7.776c2.431-0.352,4.879-0.976,7.344-1.872c0.191,0.576,0.288,1.36,0.288,2.352
				c0,1.888-0.553,3.568-1.656,5.04c-1.104,1.471-2.633,2.208-4.584,2.208c-1.024,0-2.52-0.201-4.488-0.6
				c-1.968-0.4-3.432-0.648-4.392-0.744C267.926,322.136,266.214,322.601,264.326,322.601z"/>
			<path fill="#3D3D3B" d="M299.173,310.84c-0.192,1.152-0.288,2.033-0.288,2.64c0,3.104,0.479,5.424,1.44,6.96
				c-1.921,1.44-3.921,2.16-6,2.16c-2.081,0-3.569-0.6-4.465-1.8c-0.896-1.2-1.344-2.992-1.344-5.376
				c0-2.383,1.008-9.144,3.024-20.28l-2.544-5.136c3.615-2.335,6.912-3.504,9.888-3.504c0.832,0,1.744,0.152,2.736,0.456
				c0.991,0.305,1.695,0.648,2.111,1.032c2.368-0.928,4.561-1.392,6.576-1.392c3.008,0,5.384,1.048,7.128,3.144
				c1.744,2.096,2.616,4.632,2.616,7.608c0,3.584-1.296,6.785-3.888,9.6c-1.248,1.376-2.929,2.48-5.04,3.312
				c-2.112,0.833-4.265,1.248-6.456,1.248C302.477,311.513,300.645,311.289,299.173,310.84z M300.085,305.369
				c0.447,0.096,0.912,0.144,1.392,0.144c2.048,0,3.872-0.72,5.472-2.16c1.601-1.44,2.4-3.216,2.4-5.328
				c0-1.471-0.425-2.719-1.271-3.744c-0.849-1.024-2.04-1.536-3.576-1.536c-0.641,0-1.377,0.128-2.208,0.384
				C301.652,297.513,300.916,301.593,300.085,305.369z"/>
		</g>
	</g>
</g>
<g id="Layer_2">
	<g id="logo-white_1_">
		<g>
			<g>
				<circle fill="#905BA1" cx="48.018" cy="170.198" r="24.206"/>
			</g>
			<path fill="#FFFFFF" d="M54.816,172.361c0.208-0.175,0.401-0.366,0.603-0.545C54.652,172.568,54.246,172.888,54.816,172.361z
				 M60.787,174.597c0.047,0.732-0.102,1.522-0.498,2.153c-0.406,0.66-1.028,1.112-1.697,1.393c-0.669,0.282-1.378,0.407-2.08,0.453
				c-1.163,0.076-2.311-0.065-3.434-0.295c-1.216,3.177-3.051,5.204-5.103,5.204c-1.996,0-3.784-1.928-4.998-4.959
				c-1.026,0.23-2.075,0.378-3.142,0.347c-0.7-0.023-1.417-0.125-2.094-0.382c-0.677-0.256-1.314-0.687-1.746-1.332
				c-0.419-0.615-0.593-1.401-0.571-2.134c0.017-0.742,0.194-1.456,0.443-2.132c0.483-1.289,1.212-2.453,2.04-3.521
				c-0.108-0.125-0.221-0.249-0.326-0.378c-0.204,0.114-0.438,0.185-0.688,0.185c-0.788,0-1.426-0.639-1.426-1.426
				c0-0.455,0.217-0.855,0.547-1.117c-0.047-0.095-0.104-0.183-0.148-0.28c-0.296-0.64-0.527-1.322-0.603-2.044
				c-0.077-0.716,0.026-1.49,0.401-2.151c0.369-0.665,0.986-1.165,1.654-1.478c0.669-0.318,1.389-0.48,2.103-0.562
				c1.141-0.125,2.28-0.056,3.396,0.119c1.213-3.268,3.073-5.368,5.157-5.368c2.04,0,3.865,2.006,5.08,5.152
				c1.051-0.191,2.127-0.28,3.21-0.202c0.719,0.058,1.441,0.193,2.124,0.488c0.679,0.292,1.307,0.761,1.708,1.425
				c0.39,0.635,0.525,1.415,0.472,2.131c-0.049,0.725-0.258,1.413-0.531,2.062c-0.481,1.134-1.174,2.144-1.934,3.087
				c0.865,1.041,1.632,2.176,2.162,3.448C60.538,173.148,60.744,173.857,60.787,174.597z M53.354,160.892
				c0.456,1.378,0.802,2.938,1.009,4.622c1.309,1.004,2.541,2.112,3.623,3.374c0.003,0.004,0.006,0.008,0.009,0.011
				c0.707-0.954,1.32-1.977,1.73-3.074c0.23-0.635,0.394-1.297,0.406-1.958c0.014-0.659-0.133-1.301-0.496-1.833
				c-0.346-0.511-0.89-0.891-1.487-1.112c-0.604-0.227-1.263-0.322-1.923-0.341C55.268,160.555,54.303,160.686,53.354,160.892z
				 M49.027,176.223c-0.279,0.147-0.558,0.294-0.842,0.432c1.363,0.576,2.769,1.043,4.214,1.347
				c0.077,0.015,0.155,0.025,0.231,0.041c0.741-1.995,1.235-4.47,1.379-7.188c-0.635-0.144-1.11-0.708-1.11-1.388
				c0-0.687,0.487-1.26,1.134-1.395c-0.019-0.538-0.048-1.069-0.095-1.587c-0.959-0.73-1.96-1.412-2.997-2.018
				c-0.985-0.584-2.004-1.107-3.043-1.58c-1.024,0.51-2.026,1.067-2.99,1.686c-1.008,0.64-1.979,1.352-2.905,2.11
				c-0.067,0.817-0.107,1.654-0.107,2.513c0,1.366,0.091,2.681,0.256,3.927c0.118,0.132,0.108,0.154,0.011,0.098
				c0.255,1.884,0.687,3.592,1.248,5.039c0.173-0.037,0.347-0.068,0.519-0.109c1.436-0.353,2.823-0.872,4.165-1.495
				c-1.15-0.51-2.271-1.084-3.351-1.725c1.093,0.638,2.23,1.208,3.396,1.703c0.293-0.136,0.582-0.286,0.87-0.434
				c-0.183-0.238-0.294-0.535-0.294-0.858c0-0.789,0.639-1.427,1.428-1.427c0.602,0,1.114,0.374,1.324,0.9
				c0.002,0,0.004-0.001,0.005-0.003c-0.002,0.001-0.004,0.002-0.005,0.003c0.065,0.164,0.103,0.34,0.103,0.527
				c0,0.788-0.639,1.427-1.427,1.427C49.688,176.77,49.288,176.554,49.027,176.223z M41.36,169.198c0-0.696,0.03-1.375,0.074-2.044
				c-0.963,0.825-1.883,1.707-2.701,2.671c-0.031,0.038-0.06,0.076-0.091,0.113c1.437,1.26,2.36,2.09,2.906,2.597
				C41.429,171.462,41.36,170.349,41.36,169.198z M44.334,163.669c0.746-0.473,1.52-0.905,2.306-1.314
				c-1.036-0.412-2.09-0.775-3.169-1.043c-0.146-0.035-0.294-0.062-0.44-0.093c-0.381,1.209-0.681,2.558-0.874,4.013
				C42.862,164.684,43.584,164.155,44.334,163.669z M53.78,165.076c-0.206-1.481-0.525-2.846-0.925-4.065
				c-0.197,0.049-0.396,0.094-0.592,0.148c-1.068,0.305-2.108,0.705-3.128,1.152c0.799,0.381,1.587,0.786,2.348,1.23
				C52.271,164.016,53.034,164.535,53.78,165.076z M43.324,160.349c0.116,0.022,0.234,0.038,0.348,0.062
				c1.445,0.303,2.847,0.763,4.202,1.328c1.336-0.613,2.719-1.122,4.154-1.476c0.173-0.042,0.349-0.074,0.522-0.112
				c-1.116-2.888-2.75-4.723-4.575-4.723C46.111,155.428,44.44,157.345,43.324,160.349z M38.013,169.252
				c0.003-0.004,0.006-0.009,0.009-0.012c1.048-1.314,2.256-2.475,3.545-3.535c0.194-1.667,0.519-3.219,0.957-4.596
				c-1.007-0.191-2.025-0.3-3.034-0.235c-0.66,0.044-1.316,0.162-1.909,0.41c-0.594,0.245-1.118,0.635-1.453,1.169
				c-0.337,0.532-0.464,1.188-0.427,1.844c0.036,0.658,0.221,1.316,0.477,1.941c0.034,0.083,0.079,0.161,0.115,0.243
				c0.183-0.086,0.385-0.137,0.601-0.137c0.787,0,1.426,0.639,1.426,1.426c0,0.469-0.229,0.881-0.579,1.14
				C37.83,169.029,37.924,169.139,38.013,169.252z M42.904,178.369c-0.619-1.595-1.072-3.489-1.323-5.561
				c-0.088-0.067-0.176-0.137-0.266-0.208c-0.986-0.772-1.918-1.615-2.78-2.528c-0.789,0.959-1.504,1.985-1.983,3.111
				c-0.513,1.197-0.77,2.607-0.095,3.721c0.313,0.528,0.849,0.946,1.448,1.203c0.606,0.265,1.276,0.396,1.951,0.45
				C40.868,178.631,41.892,178.549,42.904,178.369z M52.573,178.191c-0.069-0.015-0.139-0.027-0.206-0.042
				c-1.454-0.36-2.861-0.866-4.227-1.469c-1.344,0.651-2.733,1.206-4.174,1.617c-0.163,0.044-0.329,0.083-0.494,0.124
				c1.114,2.785,2.717,4.549,4.503,4.549C49.811,182.969,51.456,181.112,52.573,178.191z M59.597,172.776
				c-0.52-1.109-1.269-2.11-2.093-3.04c-0.649,0.739-1.351,1.426-2.085,2.08c0.556-0.546,1.301-1.322,2.003-2.175
				c-0.042-0.047-0.083-0.097-0.126-0.145c-0.851-0.937-1.802-1.785-2.793-2.577c0.028,0.379,0.052,0.76,0.066,1.148
				c0.671,0.115,1.184,0.697,1.184,1.401c0,0.713-0.525,1.297-1.206,1.404c-0.147,2.728-0.651,5.222-1.408,7.261
				c1.112,0.18,2.241,0.251,3.348,0.13c0.672-0.078,1.337-0.231,1.931-0.518c0.593-0.277,1.112-0.714,1.41-1.255
				C60.458,175.353,60.15,173.957,59.597,172.776z"/>
		</g>
		<g>
			<g>
				<circle fill="#E84A3D" cx="19.872" cy="180.46" r="16.775"/>
			</g>
			<path fill="#FFFFFF" d="M25.319,176.127h-6.867l-2.696,9.489c-0.082,0.252-0.312,0.428-0.579,0.437c-0.007,0-0.015,0-0.022,0
				c-0.256,0-0.489-0.156-0.585-0.396l-1.103-2.755h-1.043c-0.348,0-0.63-0.282-0.63-0.63c0-0.348,0.283-0.63,0.63-0.63h1.471
				c0.257,0,0.49,0.157,0.585,0.396l0.61,1.527l2.301-8.261c0.083-0.261,0.326-0.438,0.6-0.438h7.327c0.348,0,0.63,0.282,0.63,0.63
				S25.667,176.127,25.319,176.127z M25.659,184.596l-2.484-2.791l2.367-2.628c0.042-0.046,0.052-0.112,0.027-0.169
				c-0.025-0.057-0.082-0.093-0.144-0.093h-1.498c-0.045,0-0.089,0.02-0.119,0.054l-1.589,1.843l-1.577-1.842
				c-0.029-0.035-0.074-0.055-0.119-0.055h-1.566c-0.062,0-0.119,0.036-0.144,0.092c-0.026,0.057-0.015,0.123,0.026,0.17
				l2.341,2.629l-2.465,2.791c-0.042,0.046-0.051,0.113-0.026,0.169c0.026,0.056,0.082,0.092,0.144,0.092h1.552
				c0.046,0,0.091-0.021,0.121-0.057l1.646-1.975l1.684,1.976c0.03,0.035,0.074,0.055,0.12,0.055h1.586
				c0.062,0,0.119-0.036,0.144-0.093C25.71,184.708,25.7,184.643,25.659,184.596z"/>
		</g>
		<g>
			<g>
				<g>
					<g>
						<g>
							<g>
								<g>
									<circle fill="#36B195" cx="41.885" cy="199.718" r="19.66"/>
								</g>
							</g>
						</g>
					</g>
				</g>
			</g>
			<path fill="#FFFFFF" d="M49.38,202.237l-0.575-3.317l-7.034,4.194l-6.898-4.195L34.3,202.5c0.002-0.005,0.008-0.009,0.014-0.016
				c-0.083,0.138-0.127,0.279-0.127,0.423c0,1.266,5.309,5.162,7.079,5.162c1.771,0,8.231-3.896,8.231-5.162
				C49.497,202.771,49.451,202.639,49.38,202.237z M41.827,202.373l-10.811-6.551l10.84-3.458l10.811,3.408L41.827,202.373z
				 M31.091,196.401l-0.649,7.177l0.649,2.153l0.6-2.153L31.091,196.401z"/>
		</g>
		<g>
			<path fill="#3D3D3B" d="M98.392,193.347l-1.68-4.848c-1.664,0-3.344-0.256-5.04-0.768c-0.353,2.048-0.528,3.521-0.528,4.416
				c0,3.104,0.48,5.424,1.44,6.96c-1.92,1.44-3.92,2.16-6,2.16c-2.081,0-3.568-0.6-4.464-1.8c-0.896-1.2-1.344-2.992-1.344-5.376
				c0-2.383,1.008-9.144,3.024-20.28l-2.544-5.136c3.583-2.304,6.88-3.456,9.888-3.456c2.304,0,4.08,0.48,5.328,1.44
				c2.4-0.96,4.56-1.44,6.479-1.44c2.945,0,5.281,0.992,7.01,2.976c1.727,1.985,2.592,4.368,2.592,7.152
				c0,2.081-0.529,4.088-1.584,6.024c-1.057,1.937-2.609,3.512-4.656,4.728c1.088,3.104,2.311,5.776,3.672,8.016
				c1.359,2.24,2.711,3.728,4.055,4.464c-0.672,0.704-1.703,1.32-3.096,1.848c-1.391,0.528-2.648,0.792-3.768,0.792
				c-2.176,0-3.92-0.552-5.232-1.656C100.631,198.459,99.448,196.388,98.392,193.347z M93.784,182.499
				c2.56,0,4.552-0.655,5.976-1.968c1.424-1.312,2.137-2.72,2.137-4.224c0-1.504-0.416-2.704-1.249-3.6
				c-0.833-0.896-2.016-1.344-3.552-1.344c-0.833,0-1.665,0.112-2.496,0.336c-1.024,6.112-1.665,9.696-1.92,10.752
				C92.903,182.483,93.272,182.499,93.784,182.499z"/>
			<path fill="#3D3D3B" d="M128.967,201.219c-4.384,0-7.769-1.136-10.151-3.408c-2.385-2.272-3.576-5.344-3.576-9.216
				c0-5.152,1.768-9.336,5.304-12.552c3.535-3.216,7.976-4.824,13.32-4.824c2.976,0,5.231,0.664,6.768,1.992
				c1.536,1.328,2.305,3.081,2.305,5.256c0,2.976-1.448,5.448-4.345,7.416c-2.896,1.968-7.368,2.969-13.416,3
				c0.097,2.048,0.56,3.656,1.393,4.824c0.831,1.168,1.872,1.752,3.12,1.752s2.327-0.416,3.239-1.248
				c0.912-0.832,1.368-2.191,1.368-4.08c4.672,0,7.008,1.104,7.008,3.312c0,1.889-1.151,3.656-3.456,5.304
				C135.543,200.395,132.583,201.219,128.967,201.219z M133.047,176.835c-1.632,0-3.128,0.816-4.487,2.448
				c-1.361,1.632-2.345,3.552-2.952,5.76c3.199-0.256,5.607-0.984,7.224-2.184c1.615-1.2,2.424-2.472,2.424-3.816
				c0-0.64-0.2-1.167-0.6-1.584C134.255,177.043,133.719,176.835,133.047,176.835z"/>
			<path fill="#3D3D3B" d="M184.503,201.267c-2.08,0-3.568-0.6-4.464-1.8c-0.896-1.2-1.344-2.968-1.344-5.304
				c0-2.335,0.751-7.711,2.256-16.128h-0.768c-1.952,2.561-3.569,5.616-4.849,9.168c-1.28,3.552-2.063,6.752-2.352,9.6
				c-1.568,1.472-3.377,2.208-5.424,2.208c-0.833,0-1.561-0.296-2.185-0.888c-0.624-0.592-1.24-1.624-1.848-3.096
				c-1.185-2.976-2.032-8.64-2.544-16.992h-0.769c-1.567,6.88-2.352,11.729-2.352,14.544c0,2.816,0.479,4.992,1.44,6.528
				c-1.921,1.44-3.921,2.16-6,2.16c-2.081,0-3.569-0.6-4.465-1.8c-0.896-1.2-1.344-2.992-1.344-5.376
				c0-2.383,1.008-9.144,3.024-20.28l-2.544-5.136c3.615-2.335,6.912-3.504,9.888-3.504c1.312,0,2.424,0.137,3.336,0.408
				c0.912,0.272,1.792,0.792,2.64,1.56s1.544,1.84,2.088,3.216c1.248,3.104,2.144,7.632,2.688,13.584h0.576
				c1.663-4.896,3.968-9.104,6.912-12.624c1.6-1.888,3.511-3.375,5.735-4.464c2.224-1.087,4.633-1.632,7.225-1.632
				c2.464,0,3.695,1.488,3.695,4.464c0,0.992-0.616,4.68-1.848,11.064c-1.232,6.384-1.848,10.184-1.848,11.4
				c0,3.104,0.479,5.424,1.439,6.96C188.583,200.547,186.583,201.267,184.503,201.267z"/>
			<path fill="#3D3D3B" d="M214.215,165.219c4.224,0,7.392,0.488,9.504,1.464c2.112,0.977,3.168,2.528,3.168,4.656
				c0,2.129-0.647,3.744-1.944,4.848c-1.296,1.104-2.776,1.656-4.439,1.656c-1.664,0-3.161-0.424-4.488-1.272
				c-1.328-0.847-2.248-1.975-2.76-3.384c-1.185,0-2.312,0.392-3.384,1.176c-1.073,0.784-1.752,1.8-2.04,3.048
				c6.336,1.536,10.879,3.329,13.632,5.376c2.752,2.048,4.128,4.672,4.128,7.872c0,3.2-1.448,5.76-4.344,7.68
				c-2.896,1.92-6.801,2.88-11.712,2.88c-4.913,0-8.393-0.672-10.44-2.016c-2.048-1.344-3.072-3.12-3.072-5.328
				s0.688-4.24,2.064-6.096c0.672,1.44,1.96,2.736,3.864,3.888c1.903,1.152,3.783,1.728,5.64,1.728c3.424,0,5.6-1.087,6.528-3.264
				c-5.312-0.703-9.36-2.184-12.145-4.44c-2.784-2.256-4.176-4.983-4.176-8.184c0-2.143,0.576-4.056,1.728-5.736
				c1.152-1.68,2.624-2.968,4.416-3.864C207.463,166.115,210.887,165.219,214.215,165.219z"/>
			<path fill="#3D3D3B" d="M227.99,173.523c0-2.592,0.672-4.543,2.016-5.856c1.345-1.312,2.952-1.968,4.824-1.968
				s4.424,0.32,7.656,0.96c3.231,0.64,5.664,0.977,7.296,1.008c2.72-0.511,5.312-1.135,7.776-1.872
				c0.255,0.833,0.384,1.872,0.384,3.12c0,2.592-0.744,4.544-2.232,5.856c-1.487,1.312-3.384,1.968-5.688,1.968
				c-0.576,0-1.345-0.032-2.305-0.096c-1.76,9.248-2.64,14.417-2.64,15.504c0,3.104,0.48,5.424,1.44,6.96
				c-1.92,1.44-3.921,2.16-6,2.16c-2.081,0-3.568-0.6-4.464-1.8c-0.896-1.2-1.345-2.992-1.345-5.376
				c0-2.383,0.928-8.743,2.784-19.08c-3.616,0.48-6.656,1.024-9.12,1.632C228.118,175.844,227.99,174.803,227.99,173.523z"/>
			<path fill="#3D3D3B" d="M264.326,201.267c-1.889,0-3.281-0.6-4.177-1.8c-0.896-1.2-1.344-2.992-1.344-5.376
				c0-2.383,1.008-9.144,3.024-20.28l-2.544-5.136c3.615-2.335,6.912-3.504,9.888-3.504c1.888,0,3.056,0.896,3.504,2.688
				c3.616-0.096,8.128-0.912,13.536-2.448c0.256,1.056,0.384,2.096,0.384,3.12c0,2.592-0.856,4.544-2.568,5.856
				c-1.712,1.312-3.911,1.968-6.6,1.968c-1.824,0-3.616-0.384-5.376-1.152c-0.257,1.44-0.704,3.792-1.344,7.056
				c1.184,0.224,2.191,0.336,3.023,0.336c1.312-0.256,2.752-0.624,4.32-1.104c0.16,0.544,0.24,1.432,0.24,2.664
				s-0.497,2.216-1.488,2.952c-0.992,0.737-2.104,1.104-3.336,1.104c-1.232,0-2.488-0.144-3.768-0.432
				c-0.353,2.016-0.528,3.92-0.528,5.712h7.776c2.431-0.352,4.879-0.976,7.344-1.872c0.191,0.576,0.288,1.36,0.288,2.352
				c0,1.888-0.553,3.568-1.656,5.04c-1.104,1.471-2.633,2.208-4.584,2.208c-1.024,0-2.52-0.201-4.488-0.6
				c-1.968-0.4-3.432-0.648-4.392-0.744C267.926,200.803,266.214,201.267,264.326,201.267z"/>
			<path fill="#3D3D3B" d="M299.173,189.507c-0.192,1.152-0.288,2.033-0.288,2.64c0,3.104,0.479,5.424,1.44,6.96
				c-1.921,1.44-3.921,2.16-6,2.16c-2.081,0-3.569-0.6-4.465-1.8c-0.896-1.2-1.344-2.992-1.344-5.376
				c0-2.383,1.008-9.144,3.024-20.28l-2.544-5.136c3.615-2.335,6.912-3.504,9.888-3.504c0.832,0,1.744,0.152,2.736,0.456
				c0.991,0.305,1.695,0.648,2.111,1.032c2.368-0.928,4.561-1.392,6.576-1.392c3.008,0,5.384,1.048,7.128,3.144
				c1.744,2.096,2.616,4.632,2.616,7.608c0,3.584-1.296,6.785-3.888,9.6c-1.248,1.376-2.929,2.48-5.04,3.312
				c-2.112,0.833-4.265,1.248-6.456,1.248C302.477,190.179,300.645,189.956,299.173,189.507z M300.085,184.035
				c0.447,0.096,0.912,0.144,1.392,0.144c2.048,0,3.872-0.72,5.472-2.16c1.601-1.44,2.4-3.216,2.4-5.328
				c0-1.471-0.425-2.719-1.271-3.744c-0.849-1.024-2.04-1.536-3.576-1.536c-0.641,0-1.377,0.128-2.208,0.384
				C301.652,176.18,300.916,180.26,300.085,184.035z"/>
		</g>
	</g>
</g>
<g id="Layer_1">
	<g id="logo-white">
		<g>
			<g>
				<circle fill="#905BA1" cx="48.015" cy="27.198" r="24.206"/>
			</g>
			<path fill="#FFFFFF" d="M54.813,29.361c0.208-0.175,0.401-0.366,0.603-0.545C54.65,29.568,54.244,29.888,54.813,29.361z
				 M60.784,31.597c0.047,0.732-0.102,1.522-0.498,2.153c-0.406,0.66-1.028,1.112-1.697,1.393c-0.669,0.282-1.378,0.407-2.08,0.453
				c-1.163,0.076-2.311-0.065-3.434-0.295c-1.216,3.177-3.051,5.204-5.103,5.204c-1.996,0-3.784-1.928-4.998-4.959
				c-1.026,0.23-2.075,0.378-3.142,0.347c-0.7-0.023-1.417-0.125-2.094-0.382c-0.677-0.256-1.314-0.687-1.746-1.332
				c-0.419-0.615-0.593-1.401-0.571-2.134c0.017-0.742,0.194-1.456,0.443-2.132c0.483-1.289,1.212-2.453,2.04-3.521
				c-0.108-0.125-0.221-0.249-0.326-0.378c-0.204,0.114-0.438,0.185-0.688,0.185c-0.788,0-1.426-0.639-1.426-1.426
				c0-0.455,0.217-0.855,0.547-1.117c-0.047-0.095-0.104-0.183-0.148-0.28c-0.296-0.64-0.527-1.322-0.603-2.044
				c-0.077-0.716,0.026-1.49,0.401-2.151c0.369-0.665,0.986-1.165,1.654-1.478c0.669-0.318,1.389-0.48,2.103-0.562
				c1.141-0.125,2.28-0.056,3.396,0.119c1.213-3.268,3.073-5.368,5.157-5.368c2.04,0,3.865,2.006,5.08,5.152
				c1.051-0.191,2.127-0.28,3.21-0.202c0.719,0.058,1.441,0.193,2.124,0.488c0.679,0.292,1.307,0.761,1.708,1.425
				c0.39,0.635,0.525,1.415,0.472,2.131c-0.049,0.725-0.258,1.413-0.531,2.062c-0.481,1.134-1.174,2.144-1.934,3.087
				c0.865,1.041,1.632,2.176,2.162,3.448C60.536,30.148,60.741,30.857,60.784,31.597z M53.351,17.892
				c0.456,1.378,0.802,2.938,1.009,4.622c1.309,1.004,2.541,2.112,3.623,3.374c0.003,0.004,0.006,0.008,0.009,0.011
				c0.707-0.954,1.32-1.977,1.73-3.074c0.23-0.635,0.394-1.297,0.406-1.958c0.014-0.659-0.133-1.301-0.496-1.833
				c-0.346-0.511-0.89-0.891-1.487-1.112c-0.604-0.227-1.263-0.322-1.923-0.341C55.266,17.555,54.3,17.686,53.351,17.892z
				 M49.024,33.223c-0.279,0.147-0.558,0.294-0.842,0.432c1.363,0.576,2.769,1.043,4.214,1.347c0.077,0.015,0.155,0.025,0.231,0.041
				c0.741-1.995,1.235-4.47,1.379-7.188c-0.635-0.144-1.11-0.708-1.11-1.388c0-0.687,0.487-1.26,1.134-1.395
				c-0.019-0.538-0.048-1.069-0.095-1.587c-0.959-0.73-1.96-1.412-2.997-2.018c-0.985-0.584-2.004-1.107-3.043-1.58
				c-1.024,0.51-2.026,1.067-2.99,1.686c-1.008,0.64-1.979,1.352-2.905,2.11c-0.067,0.817-0.107,1.654-0.107,2.513
				c0,1.366,0.091,2.681,0.256,3.927c0.118,0.132,0.108,0.154,0.011,0.098c0.255,1.884,0.687,3.592,1.248,5.039
				c0.173-0.037,0.347-0.068,0.519-0.109c1.436-0.353,2.823-0.872,4.165-1.495c-1.15-0.51-2.271-1.084-3.351-1.725
				c1.093,0.638,2.23,1.208,3.396,1.703c0.293-0.136,0.582-0.286,0.87-0.434c-0.183-0.238-0.294-0.535-0.294-0.858
				c0-0.789,0.639-1.427,1.428-1.427c0.602,0,1.114,0.374,1.324,0.9c0.002,0,0.004-0.001,0.005-0.003
				c-0.002,0.001-0.004,0.002-0.005,0.003c0.065,0.164,0.103,0.34,0.103,0.527c0,0.788-0.639,1.427-1.427,1.427
				C49.686,33.77,49.285,33.554,49.024,33.223z M41.358,26.198c0-0.696,0.03-1.375,0.074-2.044
				c-0.963,0.825-1.883,1.707-2.701,2.671c-0.031,0.038-0.06,0.076-0.091,0.113c1.437,1.26,2.36,2.09,2.906,2.597
				C41.426,28.462,41.358,27.349,41.358,26.198z M44.332,20.669c0.746-0.473,1.52-0.905,2.306-1.314
				c-1.036-0.412-2.09-0.775-3.169-1.043c-0.146-0.035-0.294-0.062-0.44-0.093c-0.381,1.209-0.681,2.558-0.874,4.013
				C42.86,21.684,43.582,21.155,44.332,20.669z M53.777,22.076c-0.206-1.481-0.525-2.846-0.925-4.065
				c-0.197,0.049-0.396,0.094-0.592,0.148c-1.068,0.305-2.108,0.705-3.128,1.152c0.799,0.381,1.587,0.786,2.348,1.23
				C52.269,21.016,53.032,21.535,53.777,22.076z M43.322,17.349c0.116,0.022,0.234,0.038,0.348,0.062
				c1.445,0.303,2.847,0.763,4.202,1.328c1.336-0.613,2.719-1.122,4.154-1.476c0.173-0.042,0.349-0.074,0.522-0.112
				c-1.116-2.888-2.75-4.723-4.575-4.723C46.108,12.428,44.438,14.345,43.322,17.349z M38.011,26.252
				c0.003-0.004,0.006-0.009,0.009-0.012c1.048-1.314,2.256-2.475,3.545-3.535c0.194-1.667,0.519-3.219,0.957-4.596
				c-1.007-0.191-2.025-0.3-3.034-0.235c-0.66,0.044-1.316,0.162-1.909,0.41c-0.594,0.245-1.118,0.635-1.453,1.169
				c-0.337,0.532-0.464,1.188-0.427,1.844c0.036,0.658,0.221,1.316,0.477,1.941c0.034,0.083,0.079,0.161,0.115,0.243
				c0.183-0.086,0.385-0.137,0.601-0.137c0.787,0,1.426,0.639,1.426,1.426c0,0.469-0.229,0.881-0.579,1.14
				C37.828,26.029,37.921,26.139,38.011,26.252z M42.902,35.369c-0.619-1.595-1.072-3.489-1.323-5.561
				c-0.088-0.067-0.176-0.137-0.266-0.208c-0.986-0.772-1.918-1.615-2.78-2.528c-0.789,0.959-1.504,1.985-1.983,3.111
				c-0.513,1.197-0.77,2.607-0.095,3.721c0.313,0.528,0.849,0.946,1.448,1.203c0.606,0.265,1.276,0.396,1.951,0.45
				C40.865,35.631,41.889,35.549,42.902,35.369z M52.57,35.191c-0.069-0.015-0.139-0.027-0.206-0.042
				c-1.454-0.36-2.861-0.866-4.227-1.469c-1.344,0.651-2.733,1.206-4.174,1.617c-0.163,0.044-0.329,0.083-0.494,0.124
				c1.114,2.785,2.717,4.549,4.503,4.549C49.808,39.969,51.454,38.112,52.57,35.191z M59.594,29.776
				c-0.52-1.109-1.269-2.11-2.093-3.04c-0.649,0.739-1.351,1.426-2.085,2.08c0.556-0.546,1.301-1.322,2.003-2.175
				c-0.042-0.047-0.083-0.097-0.126-0.145c-0.851-0.937-1.802-1.785-2.793-2.577c0.028,0.379,0.052,0.76,0.066,1.148
				c0.671,0.115,1.184,0.697,1.184,1.401c0,0.713-0.525,1.297-1.206,1.404c-0.147,2.728-0.651,5.222-1.408,7.261
				c1.112,0.18,2.241,0.251,3.348,0.13c0.672-0.078,1.337-0.231,1.931-0.518c0.593-0.277,1.112-0.714,1.41-1.255
				C60.456,32.353,60.147,30.957,59.594,29.776z"/>
		</g>
		<g>
			<g>
				<circle fill="#E84D3D" cx="19.87" cy="37.46" r="16.775"/>
			</g>
			<path fill="#FFFFFF" d="M25.317,33.127H18.45l-2.696,9.489c-0.082,0.252-0.312,0.428-0.579,0.437c-0.007,0-0.015,0-0.022,0
				c-0.256,0-0.489-0.156-0.585-0.396l-1.103-2.755h-1.043c-0.348,0-0.63-0.282-0.63-0.63c0-0.348,0.283-0.63,0.63-0.63h1.471
				c0.257,0,0.49,0.157,0.585,0.396l0.61,1.527l2.301-8.261c0.083-0.261,0.326-0.438,0.6-0.438h7.327c0.348,0,0.63,0.282,0.63,0.63
				S25.665,33.127,25.317,33.127z M25.657,41.596l-2.484-2.791l2.367-2.628c0.042-0.046,0.052-0.112,0.027-0.169
				c-0.025-0.057-0.082-0.093-0.144-0.093h-1.498c-0.045,0-0.089,0.02-0.119,0.054l-1.589,1.843l-1.577-1.842
				c-0.029-0.035-0.074-0.055-0.119-0.055h-1.566c-0.062,0-0.119,0.036-0.144,0.092c-0.026,0.057-0.015,0.123,0.026,0.17
				l2.341,2.629l-2.465,2.791c-0.042,0.046-0.051,0.113-0.026,0.169c0.026,0.056,0.082,0.092,0.144,0.092h1.552
				c0.046,0,0.091-0.021,0.121-0.057l1.646-1.975l1.684,1.976c0.03,0.035,0.074,0.055,0.12,0.055h1.586
				c0.062,0,0.119-0.036,0.144-0.093C25.708,41.708,25.698,41.643,25.657,41.596z"/>
		</g>
		<g>
			<g>
				<g>
					<g>
						<g>
							<g>
								<g>
									<circle fill="#32B298" cx="41.883" cy="56.718" r="19.66"/>
								</g>
							</g>
						</g>
					</g>
				</g>
			</g>
			<path fill="#FFFFFF" d="M49.378,59.237l-0.575-3.317l-7.034,4.194l-6.898-4.195L34.298,59.5c0.002-0.005,0.008-0.009,0.014-0.016
				c-0.083,0.138-0.127,0.279-0.127,0.423c0,1.266,5.309,5.162,7.079,5.162c1.771,0,8.231-3.896,8.231-5.162
				C49.494,59.771,49.448,59.639,49.378,59.237z M41.825,59.373l-10.811-6.551l10.84-3.458l10.811,3.408L41.825,59.373z
				 M31.089,53.401l-0.649,7.177l0.649,2.153l0.6-2.153L31.089,53.401z"/>
		</g>
		<g>
			<path fill="#FFFFFF" d="M98.39,50.347l-1.68-4.848c-1.664,0-3.344-0.256-5.04-0.768c-0.353,2.048-0.528,3.521-0.528,4.416
				c0,3.104,0.48,5.424,1.44,6.96c-1.92,1.44-3.92,2.16-6,2.16c-2.081,0-3.568-0.6-4.464-1.8c-0.896-1.2-1.344-2.992-1.344-5.376
				c0-2.383,1.008-9.144,3.024-20.28l-2.544-5.136c3.583-2.304,6.88-3.456,9.888-3.456c2.304,0,4.08,0.48,5.328,1.44
				c2.4-0.96,4.56-1.44,6.479-1.44c2.945,0,5.281,0.992,7.01,2.976c1.727,1.985,2.592,4.368,2.592,7.152
				c0,2.081-0.529,4.088-1.584,6.024c-1.057,1.937-2.609,3.512-4.656,4.728c1.088,3.104,2.311,5.776,3.672,8.016
				c1.359,2.24,2.711,3.728,4.055,4.464c-0.672,0.704-1.703,1.32-3.096,1.848c-1.391,0.528-2.648,0.792-3.768,0.792
				c-2.176,0-3.92-0.552-5.232-1.656C100.629,55.459,99.445,53.388,98.39,50.347z M93.782,39.499c2.56,0,4.552-0.655,5.976-1.968
				c1.424-1.312,2.137-2.72,2.137-4.224c0-1.504-0.416-2.704-1.249-3.6c-0.833-0.896-2.016-1.344-3.552-1.344
				c-0.833,0-1.665,0.112-2.496,0.336c-1.024,6.112-1.665,9.696-1.92,10.752C92.901,39.483,93.27,39.499,93.782,39.499z"/>
			<path fill="#FFFFFF" d="M128.964,58.219c-4.384,0-7.769-1.136-10.151-3.408c-2.385-2.272-3.576-5.344-3.576-9.216
				c0-5.152,1.768-9.336,5.304-12.552c3.535-3.216,7.976-4.824,13.32-4.824c2.976,0,5.231,0.664,6.768,1.992
				c1.536,1.328,2.305,3.081,2.305,5.256c0,2.976-1.448,5.448-4.345,7.416c-2.896,1.968-7.368,2.969-13.416,3
				c0.097,2.048,0.56,3.656,1.393,4.824c0.831,1.168,1.872,1.752,3.12,1.752s2.327-0.416,3.239-1.248
				c0.912-0.832,1.368-2.191,1.368-4.08c4.672,0,7.008,1.104,7.008,3.312c0,1.889-1.151,3.656-3.456,5.304
				C135.541,57.395,132.581,58.219,128.964,58.219z M133.044,33.835c-1.632,0-3.128,0.816-4.487,2.448
				c-1.361,1.632-2.345,3.552-2.952,5.76c3.199-0.256,5.607-0.984,7.224-2.184c1.615-1.2,2.424-2.472,2.424-3.816
				c0-0.64-0.2-1.167-0.6-1.584C134.252,34.043,133.716,33.835,133.044,33.835z"/>
			<path fill="#FFFFFF" d="M184.5,58.267c-2.08,0-3.568-0.6-4.464-1.8c-0.896-1.2-1.344-2.968-1.344-5.304
				c0-2.335,0.751-7.711,2.256-16.128h-0.768c-1.952,2.561-3.569,5.616-4.849,9.168c-1.28,3.552-2.063,6.752-2.352,9.6
				c-1.568,1.472-3.377,2.208-5.424,2.208c-0.833,0-1.561-0.296-2.185-0.888c-0.624-0.592-1.24-1.624-1.848-3.096
				c-1.184-2.976-2.032-8.64-2.543-16.992h-0.769c-1.567,6.88-2.352,11.729-2.352,14.544c0,2.816,0.479,4.992,1.44,6.528
				c-1.921,1.44-3.921,2.16-6,2.16c-2.081,0-3.569-0.6-4.465-1.8c-0.896-1.2-1.344-2.992-1.344-5.376
				c0-2.383,1.008-9.144,3.024-20.28l-2.544-5.136c3.615-2.335,6.912-3.504,9.888-3.504c1.312,0,2.424,0.137,3.336,0.408
				c0.912,0.272,1.792,0.792,2.639,1.56s1.544,1.84,2.088,3.216c1.248,3.104,2.144,7.632,2.688,13.584h0.576
				c1.663-4.896,3.968-9.104,6.912-12.624c1.6-1.888,3.511-3.375,5.735-4.464c2.224-1.087,4.633-1.632,7.225-1.632
				c2.464,0,3.695,1.488,3.695,4.464c0,0.992-0.616,4.68-1.848,11.064c-1.232,6.384-1.848,10.184-1.848,11.4
				c0,3.104,0.479,5.424,1.439,6.96C188.58,57.547,186.58,58.267,184.5,58.267z"/>
			<path fill="#FFFFFF" d="M214.212,22.219c4.224,0,7.392,0.488,9.504,1.464c2.112,0.977,3.168,2.528,3.168,4.656
				c0,2.129-0.647,3.744-1.944,4.848c-1.296,1.104-2.776,1.656-4.439,1.656c-1.664,0-3.161-0.424-4.488-1.272
				c-1.328-0.847-2.248-1.975-2.76-3.384c-1.185,0-2.312,0.392-3.384,1.176c-1.073,0.784-1.752,1.8-2.04,3.048
				c6.336,1.536,10.879,3.329,13.632,5.376c2.752,2.048,4.128,4.672,4.128,7.872c0,3.2-1.448,5.76-4.344,7.68
				c-2.896,1.92-6.801,2.88-11.712,2.88c-4.913,0-8.393-0.672-10.44-2.016c-2.048-1.344-3.072-3.12-3.072-5.328
				s0.688-4.24,2.064-6.096c0.672,1.44,1.96,2.736,3.864,3.888c1.903,1.152,3.783,1.728,5.64,1.728c3.424,0,5.6-1.087,6.528-3.264
				c-5.312-0.703-9.36-2.184-12.145-4.44c-2.784-2.256-4.176-4.983-4.176-8.184c0-2.143,0.576-4.056,1.728-5.736
				c1.152-1.68,2.624-2.968,4.416-3.864C207.46,23.115,210.884,22.219,214.212,22.219z"/>
			<path fill="#FFFFFF" d="M227.987,30.523c0-2.592,0.672-4.543,2.016-5.856c1.345-1.312,2.952-1.968,4.824-1.968
				s4.424,0.32,7.656,0.96c3.231,0.64,5.664,0.977,7.296,1.008c2.72-0.511,5.312-1.135,7.776-1.872
				c0.255,0.833,0.384,1.872,0.384,3.12c0,2.592-0.744,4.544-2.232,5.856c-1.487,1.312-3.384,1.968-5.688,1.968
				c-0.576,0-1.345-0.032-2.305-0.096c-1.76,9.248-2.64,14.417-2.64,15.504c0,3.104,0.48,5.424,1.44,6.96
				c-1.92,1.44-3.921,2.16-6,2.16c-2.081,0-3.568-0.6-4.464-1.8c-0.896-1.2-1.345-2.992-1.345-5.376
				c0-2.383,0.928-8.743,2.784-19.08c-3.616,0.48-6.656,1.024-9.12,1.632C228.115,32.844,227.987,31.803,227.987,30.523z"/>
			<path fill="#FFFFFF" d="M264.323,58.267c-1.889,0-3.281-0.6-4.177-1.8c-0.896-1.2-1.344-2.992-1.344-5.376
				c0-2.383,1.008-9.144,3.024-20.28l-2.544-5.136c3.615-2.335,6.912-3.504,9.888-3.504c1.888,0,3.056,0.896,3.504,2.688
				c3.616-0.096,8.128-0.912,13.536-2.448c0.256,1.056,0.384,2.096,0.384,3.12c0,2.592-0.856,4.544-2.568,5.856
				c-1.712,1.312-3.911,1.968-6.6,1.968c-1.824,0-3.616-0.384-5.376-1.152c-0.257,1.44-0.704,3.792-1.344,7.056
				c1.184,0.224,2.191,0.336,3.023,0.336c1.312-0.256,2.752-0.624,4.32-1.104c0.16,0.544,0.24,1.432,0.24,2.664
				s-0.497,2.216-1.488,2.952c-0.992,0.737-2.104,1.104-3.336,1.104c-1.232,0-2.488-0.144-3.768-0.432
				c-0.353,2.016-0.528,3.92-0.528,5.712h7.776c2.431-0.352,4.879-0.976,7.344-1.872c0.191,0.576,0.288,1.36,0.288,2.352
				c0,1.888-0.553,3.568-1.656,5.04c-1.104,1.471-2.633,2.208-4.584,2.208c-1.024,0-2.52-0.201-4.488-0.6
				c-1.968-0.4-3.432-0.648-4.392-0.744C267.923,57.803,266.211,58.267,264.323,58.267z"/>
			<path fill="#FFFFFF" d="M299.17,46.507c-0.192,1.152-0.288,2.033-0.288,2.64c0,3.104,0.479,5.424,1.44,6.96
				c-1.921,1.44-3.921,2.16-6,2.16c-2.081,0-3.569-0.6-4.465-1.8c-0.896-1.2-1.344-2.992-1.344-5.376
				c0-2.383,1.008-9.144,3.024-20.28l-2.544-5.136c3.615-2.335,6.912-3.504,9.888-3.504c0.832,0,1.744,0.152,2.736,0.456
				c0.991,0.305,1.695,0.648,2.111,1.032c2.368-0.928,4.561-1.392,6.576-1.392c3.008,0,5.384,1.048,7.128,3.144
				c1.744,2.096,2.616,4.632,2.616,7.608c0,3.584-1.296,6.785-3.888,9.6c-1.248,1.376-2.929,2.48-5.04,3.312
				c-2.112,0.833-4.265,1.248-6.456,1.248C302.474,47.179,300.642,46.956,299.17,46.507z M300.082,41.035
				c0.447,0.096,0.912,0.144,1.392,0.144c2.048,0,3.872-0.72,5.472-2.16c1.601-1.44,2.4-3.216,2.4-5.328
				c0-1.471-0.425-2.719-1.271-3.744c-0.849-1.024-2.04-1.536-3.576-1.536c-0.641,0-1.377,0.128-2.208,0.384
				C301.649,33.18,300.913,37.26,300.082,41.035z"/>
		</g>
	</g>
</g>
</svg>
