<?xml version="1.0" encoding="utf-8"?>
<!-- Generator: Adobe Illustrator 16.0.0, SVG Export Plug-In . SVG Version: 6.00 Build 0)  -->
<!DOCTYPE svg PUBLIC "-//W3C//DTD SVG 1.1//EN" "http://www.w3.org/Graphics/SVG/1.1/DTD/svg11.dtd">
<svg version="1.1" id="Capa_1" xmlns="http://www.w3.org/2000/svg" xmlns:xlink="http://www.w3.org/1999/xlink" x="0px" y="0px"
	 width="128px" height="128px" viewBox="0 0 128 128" enable-background="new 0 0 128 128" xml:space="preserve">
<path fill="#FFFFFF" d="M90.869,20.159L20.159,90.87c-4.666,4.667-4.666,12.304,0,16.971c4.668,4.667,12.305,4.667,16.971,0
	l70.71-70.711c4.668-4.667,4.668-12.304,0-16.971C103.174,15.492,95.537,15.493,90.869,20.159z"/>
<path fill="#FFFFFF" d="M107.841,90.871L37.13,20.16c-4.667-4.667-12.304-4.667-16.971,0c-4.667,4.666-4.667,12.304,0,16.971
	l70.711,70.711c4.667,4.666,12.304,4.666,16.971,0C112.508,103.174,112.508,95.537,107.841,90.871z"/>
</svg>
